<?xml version="1.0" encoding="UTF-8"?>
<svg id="Layer_2" data-name="Layer 2" xmlns="http://www.w3.org/2000/svg" viewBox="0 0 991.03 638.08">
  <defs>
    <style>
      .cls-1 {
        fill: #333;
        fill-rule: evenodd;
      }
    </style>
  </defs>
  <g id="Layer_1" data-name="Layer 1">
    <g>
      <path class="cls-1" d="M29.63,0C13.33,0,0,13.34,0,29.65v567.28c0,16.31,13.33,29.65,29.63,29.65h107.03c.19-.93.37-2.04.56-3.15l31.11-140.66c2.96-13.53,15.55-24.09,29.63-24.09h595.14c13.89,0,26.66,10.56,29.63,24.09l31.11,140.66c.19,1.11.37,2.22.37,3.15h107.21c16.3,0,29.63-13.34,29.63-29.65V29.65c0-16.31-13.33-29.65-29.63-29.65H29.63ZM251.09,417.91c-35.55,0-67.77-14.46-91.1-37.81-23.33-23.54-37.77-55.78-37.77-91.18s14.44-67.64,37.77-91c23.33-23.35,55.55-37.99,91.1-37.99h488.85c35.37,0,67.59,14.64,90.92,37.99,23.33,23.35,37.96,55.6,37.96,91s-14.63,67.64-37.96,91.18c-23.33,23.35-55.55,37.81-90.92,37.81H251.09ZM739.94,398.27c30,0,57.4-12.23,77.03-32.06,19.81-19.83,32.22-47.26,32.22-77.28s-12.41-57.45-32.22-77.28c-19.63-19.64-47.03-32.06-77.03-32.06H251.09c-30,0-57.4,12.42-77.22,32.06-19.81,19.83-32.03,47.26-32.03,77.28s12.22,57.45,32.03,77.28c19.81,19.83,47.22,32.06,77.22,32.06h488.85ZM285.35,213.68c-41.66,0-75.36,33.73-75.36,75.24s33.7,75.24,75.36,75.24,75.18-33.54,75.18-75.24-33.7-75.24-75.18-75.24h0ZM705.68,213.68c-41.48,0-75.18,33.73-75.18,75.24s33.7,75.24,75.18,75.24,75.18-33.54,75.18-75.24-33.7-75.24-75.18-75.24h0ZM378.49,363.61h234.05v-149.37h-234.05v149.37ZM36.48,17.24c-10,0-18.15,8.15-18.15,18.16s8.15,17.98,18.15,17.98,17.96-7.97,17.96-17.98-7.96-18.16-17.96-18.16h0ZM954.55,17.24c-10,0-18.15,8.15-18.15,18.16s8.15,17.98,18.15,17.98,17.96-7.97,17.96-17.98-7.96-18.16-17.96-18.16h0ZM36.48,573.21c-10,0-18.15,7.97-18.15,17.98s8.15,17.98,18.15,17.98,17.96-7.97,17.96-17.98-7.96-17.98-17.96-17.98h0ZM954.55,573.21c-10,0-18.15,7.97-18.15,17.98s8.15,17.98,18.15,17.98,17.96-7.97,17.96-17.98-7.96-17.98-17.96-17.98h0Z"/>
      <path class="cls-1" d="M197.95,475.36c-6.11,0-12.22,4.82-13.52,10.93l-31.11,140.66c-1.3,6.12,2.59,11.12,8.7,11.12h666.98c6.11,0,10-5,8.52-11.12l-30.92-140.66c-1.3-6.12-7.41-10.93-13.52-10.93H197.95ZM495.51,509.65c-10.18,0-18.33,8.15-18.33,18.35s8.15,18.35,18.33,18.35,18.33-8.15,18.33-18.35-8.15-18.35-18.33-18.35h0ZM249.24,582.85c-10.18,0-18.15,8.15-18.15,18.16s7.96,18.16,18.15,18.16,18.15-8.15,18.15-18.16-8.15-18.16-18.15-18.16h0ZM329.97,556.53c-10,0-18.15,8.15-18.15,18.16s8.15,18.16,18.15,18.16,18.15-7.97,18.15-18.16-8.15-18.16-18.15-18.16h0ZM741.79,582.85c10,0,18.15,8.15,18.15,18.16s-8.15,18.16-18.15,18.16-18.15-8.15-18.15-18.16,8.15-18.16,18.15-18.16h0ZM660.87,556.53c10.18,0,18.15,8.15,18.15,18.16s-7.96,18.16-18.15,18.16-18.15-7.97-18.15-18.16,8.15-18.16,18.15-18.16h0Z"/>
      <path class="cls-1" d="M285.35,231.1c-32.03,0-57.77,25.95-57.77,57.82s25.74,57.82,57.77,57.82,57.77-25.95,57.77-57.82-25.92-57.82-57.77-57.82h0ZM249.61,259.83c7.04-8.53,17.04-14.46,28.33-16.31v11.49h14.81v-11.49c11.3,1.85,21.11,7.78,28.15,16.31l-10,5.75,7.41,12.79,10-5.75c1.85,5.19,2.96,10.56,2.96,16.31s-1.11,11.3-2.96,16.31l-10-5.75-7.41,12.79,10,5.75c-7.04,8.53-16.85,14.46-28.15,16.31v-11.49h-14.81v11.49c-11.3-1.85-21.29-7.78-28.33-16.31l10-5.75-7.41-12.79-10,5.75c-1.85-5-2.96-10.56-2.96-16.31s1.11-11.12,2.96-16.31l10,5.75,7.41-12.79-10-5.75h0Z"/>
      <path class="cls-1" d="M705.68,231.1c-31.85,0-57.77,25.95-57.77,57.82s25.92,57.82,57.77,57.82,57.77-25.95,57.77-57.82-25.92-57.82-57.77-57.82h0ZM670.13,259.83c6.85-8.53,16.85-14.46,28.15-16.31v11.49h14.81v-11.49c11.3,1.85,21.29,7.78,28.15,16.31l-10,5.75,7.41,12.79,10-5.75c2.04,5.19,2.96,10.56,2.96,16.31s-.93,11.3-2.96,16.31l-10-5.75-7.41,12.79,10,5.75c-6.85,8.53-16.85,14.46-28.15,16.31v-11.49h-14.81v11.49c-11.3-1.85-21.29-7.78-28.15-16.31l10-5.75-7.41-12.79-10,5.75c-2.04-5-2.96-10.56-2.96-16.31s.93-11.12,2.96-16.31l10,5.75,7.41-12.79-10-5.75h0Z"/>
      <path class="cls-1" d="M520.14,229.25c-5.93,18.9-9.26,38.92-9.26,59.68s3.33,40.77,9.26,59.67h77.4v-119.35h-77.4Z"/>
      <path class="cls-1" d="M421.26,348.6c7.96-18.35,12.41-38.36,12.41-59.67s-4.44-41.33-12.41-59.68h-27.96v119.35h27.96Z"/>
    </g>
  </g>
</svg>